<svg width="32" height="32" viewBox="0 0 32 32" fill="none" xmlns="http://www.w3.org/2000/svg">
<path opacity="0.2" d="M27 15.0001V27.0001H19V19.0001H13V27.0001H5V15.0001C4.9999 14.8687 5.02568 14.7386 5.07586 14.6172C5.12605 14.4958 5.19967 14.3855 5.2925 14.2926L15.2925 4.29255C15.3854 4.19958 15.4957 4.12582 15.6171 4.07549C15.7385 4.02517 15.8686 3.99927 16 3.99927C16.1314 3.99927 16.2615 4.02517 16.3829 4.07549C16.5043 4.12582 16.6146 4.19958 16.7075 4.29255L26.7075 14.2926C26.8003 14.3855 26.8739 14.4958 26.9241 14.6172C26.9743 14.7386 27.0001 14.8687 27 15.0001Z" fill="#343330"/>
<path d="M27.4138 13.585L17.4138 3.58496C17.0387 3.21017 16.5302 2.99963 16 2.99963C15.4698 2.99963 14.9613 3.21017 14.5863 3.58496L4.58626 13.585C4.39964 13.7702 4.25171 13.9907 4.15107 14.2336C4.05042 14.4765 3.99908 14.737 4.00001 15V27C4.00001 27.2652 4.10537 27.5195 4.29291 27.7071C4.48044 27.8946 4.7348 28 5.00001 28H13C13.2652 28 13.5196 27.8946 13.7071 27.7071C13.8947 27.5195 14 27.2652 14 27V20H18V27C18 27.2652 18.1054 27.5195 18.2929 27.7071C18.4804 27.8946 18.7348 28 19 28H27C27.2652 28 27.5196 27.8946 27.7071 27.7071C27.8947 27.5195 28 27.2652 28 27V15C28.0009 14.737 27.9496 14.4765 27.849 14.2336C27.7483 13.9907 27.6004 13.7702 27.4138 13.585ZM26 26H20V19C20 18.7347 19.8947 18.4804 19.7071 18.2928C19.5196 18.1053 19.2652 18 19 18H13C12.7348 18 12.4804 18.1053 12.2929 18.2928C12.1054 18.4804 12 18.7347 12 19V26H6.00001V15L16 4.99996L26 15V26Z" fill="#343330"/>
</svg>
