<svg width="32" height="32" viewBox="0 0 32 32" fill="none" xmlns="http://www.w3.org/2000/svg">
<path opacity="0.2" d="M26.9912 12.59C26.8819 9.97707 25.7533 7.51093 23.8473 5.7202C21.9413 3.92947 19.4096 2.95666 16.7949 3.01028C14.1802 3.06391 11.6906 4.1397 9.85965 6.00707C8.02869 7.87444 7.00212 10.3848 6.99999 13L4.08124 18.6088C3.9806 18.8432 3.97334 19.1072 4.06094 19.3467C4.14854 19.5863 4.32439 19.7833 4.55249 19.8975L7.99999 21.4763V26C7.99999 26.2652 8.10535 26.5196 8.29288 26.7071C8.48042 26.8947 8.73477 27 8.99999 27H15C15 27.5305 15.2107 28.0392 15.5858 28.4142C15.9608 28.7893 16.4696 29 17 29H24L23 21C24.2985 20.028 25.3405 18.7541 26.0359 17.2887C26.7314 15.8234 27.0593 14.2106 26.9912 12.59ZM14.0162 9.26002C13.9621 8.84581 14.039 8.42503 14.2361 8.05674C14.4333 7.68845 14.7408 7.39114 15.1155 7.20654C15.4903 7.02194 15.9134 6.95931 16.3256 7.02744C16.7377 7.09558 17.1182 7.29106 17.4136 7.58645C17.709 7.88183 17.9044 8.2623 17.9726 8.67445C18.0407 9.0866 17.9781 9.50973 17.7935 9.88447C17.6089 10.2592 17.3116 10.5667 16.9433 10.7639C16.575 10.9611 16.1542 11.0379 15.74 10.9838C15.3029 10.9266 14.8969 10.7266 14.5851 10.4149C14.2734 10.1031 14.0734 9.69715 14.0162 9.26002ZM18.2662 18.9838C17.852 19.0379 17.4312 18.9611 17.063 18.7639C16.6947 18.5667 16.3974 18.2592 16.2128 17.8845C16.0282 17.5097 15.9655 17.0866 16.0337 16.6744C16.1018 16.2623 16.2973 15.8818 16.5927 15.5864C16.8881 15.2911 17.2685 15.0956 17.6807 15.0274C18.0928 14.9593 18.516 15.0219 18.8907 15.2065C19.2654 15.3911 19.573 15.6884 19.7701 16.0567C19.9673 16.425 20.0442 16.8458 19.99 17.26C19.9325 17.6981 19.7316 18.1048 19.4186 18.4166C19.1057 18.7284 18.6982 18.9279 18.26 18.9838H18.2662Z" fill="#343330"/>
<path d="M24.0625 21.4338C25.3271 20.3715 26.3373 19.0392 27.0187 17.5348C27.7002 16.0304 28.0355 14.3924 28 12.7413C27.875 7.02751 23.2988 2.31626 17.595 2.01626C16.1234 1.93616 14.6506 2.15261 13.2642 2.65277C11.8779 3.15293 10.6061 3.92659 9.52459 4.92781C8.44303 5.92903 7.57371 7.13739 6.96825 8.48112C6.36278 9.82485 6.03353 11.2766 6.00003 12.75L3.19378 18.1475C3.18253 18.17 3.17128 18.1925 3.16128 18.215C2.9601 18.6839 2.94576 19.212 3.1212 19.6912C3.29665 20.1704 3.64861 20.5644 4.10503 20.7925L4.13628 20.8063L7.00003 22.1175V26C7.00003 26.5304 7.21075 27.0392 7.58582 27.4142C7.96089 27.7893 8.4696 28 9.00003 28H15C15.2652 28 15.5196 27.8947 15.7071 27.7071C15.8947 27.5196 16 27.2652 16 27C16 26.7348 15.8947 26.4804 15.7071 26.2929C15.5196 26.1054 15.2652 26 15 26H9.00003V21.4763C9.00018 21.2846 8.94523 21.0969 8.84174 20.9356C8.73824 20.7742 8.59056 20.646 8.41628 20.5663L5.00003 19L7.88378 13.4575C7.95895 13.3166 7.99884 13.1597 8.00003 13C7.99974 10.9604 8.69222 8.98124 9.96401 7.38674C11.2358 5.79224 13.0115 4.677 15 4.22376V6.17251C14.3328 6.4084 13.7705 6.87258 13.4124 7.48299C13.0543 8.0934 12.9236 8.81075 13.0432 9.50824C13.1629 10.2057 13.5253 10.8385 14.0664 11.2946C14.6074 11.7508 15.2923 12.0009 16 12.0009C16.7077 12.0009 17.3926 11.7508 17.9337 11.2946C18.4748 10.8385 18.8372 10.2057 18.9568 9.50824C19.0765 8.81075 18.9457 8.0934 18.5877 7.48299C18.2296 6.87258 17.6672 6.4084 17 6.17251V4.00001C17.1625 4.00001 17.325 4.00001 17.4875 4.01251C19.2609 4.11409 20.9649 4.73627 22.3865 5.80124C23.8081 6.86621 24.8841 8.32669 25.48 10H23C22.8533 9.99995 22.7084 10.0322 22.5756 10.0944C22.4427 10.1566 22.3252 10.2473 22.2313 10.36L19.0425 14.1875C18.3775 13.9397 17.6462 13.9351 16.9781 14.1744C16.31 14.4138 15.748 14.8817 15.3916 15.4954C15.0352 16.1092 14.9074 16.8292 15.0306 17.5281C15.1539 18.227 15.5204 18.8598 16.0652 19.3146C16.6101 19.7694 17.2982 20.0168 18.0079 20.0132C18.7176 20.0095 19.4031 19.755 19.9433 19.2947C20.4834 18.8343 20.8434 18.1977 20.9594 17.4976C21.0755 16.7974 20.9402 16.0788 20.5775 15.4688L23.4688 12H25.9425C25.9725 12.26 25.9909 12.5225 25.9975 12.7875C26.0287 14.2198 25.7187 15.639 25.0932 16.9278C24.4677 18.2167 23.5446 19.3383 22.4 20.2C22.259 20.3057 22.1484 20.4469 22.0795 20.6091C22.0106 20.7713 21.9857 20.9489 22.0075 21.1238L23.0075 29.1238C23.038 29.3653 23.1554 29.5874 23.3379 29.7485C23.5204 29.9095 23.7554 29.9985 23.9988 29.9988C24.0406 29.9988 24.0823 29.9962 24.1238 29.9913C24.2541 29.975 24.38 29.9333 24.4942 29.8684C24.6084 29.8035 24.7087 29.7168 24.7894 29.6131C24.8701 29.5094 24.9295 29.3909 24.9644 29.2643C24.9992 29.1376 25.0088 29.0054 24.9925 28.875L24.0625 21.4338ZM16 10C15.8023 10 15.6089 9.94136 15.4445 9.83148C15.28 9.7216 15.1518 9.56542 15.0762 9.38269C15.0005 9.19997 14.9807 8.9989 15.0192 8.80492C15.0578 8.61094 15.1531 8.43275 15.2929 8.2929C15.4328 8.15305 15.611 8.05781 15.8049 8.01922C15.9989 7.98064 16.2 8.00044 16.3827 8.07613C16.5654 8.15182 16.7216 8.27999 16.8315 8.44444C16.9414 8.60889 17 8.80223 17 9.00001C17 9.26523 16.8947 9.51958 16.7071 9.70712C16.5196 9.89465 16.2652 10 16 10ZM18 18C17.8023 18 17.6089 17.9414 17.4445 17.8315C17.28 17.7216 17.1518 17.5654 17.0762 17.3827C17.0005 17.2 16.9807 16.9989 17.0192 16.8049C17.0578 16.6109 17.1531 16.4328 17.2929 16.2929C17.4328 16.153 17.611 16.0578 17.8049 16.0192C17.9989 15.9806 18.2 16.0004 18.3827 16.0761C18.5654 16.1518 18.7216 16.28 18.8315 16.4444C18.9414 16.6089 19 16.8022 19 17C19 17.2652 18.8947 17.5196 18.7071 17.7071C18.5196 17.8947 18.2652 18 18 18Z" fill="#343330"/>
</svg>
